# Tiled2Unity generated file. Do not modify by hand.
# Wavefront file for 'TestTiledMap2_mesh_0002.obj'

# Vertices (Count = 336)
v -192 -64 0
v -256 -64 0
v -256 0 0
v -192 0 0
v -256 -64 0
v -320 -64 0
v -320 0 0
v -256 0 0
v -320 -64 0
v -384 -64 0
v -384 0 0
v -320 0 0
v -384 -64 0
v -448 -64 0
v -448 0 0
v -384 0 0
v -448 -64 0
v -512 -64 0
v -512 0 0
v -448 0 0
v -512 -64 0
v -576 -64 0
v -576 0 0
v -512 0 0
v -576 -64 0
v -640 -64 0
v -640 0 0
v -576 0 0
v -704 -64 0
v -768 -64 0
v -768 0 0
v -704 0 0
v -768 -64 0
v -832 -64 0
v -832 0 0
v -768 0 0
v -832 -64 0
v -896 -64 0
v -896 0 0
v -832 0 0
v -896 -64 0
v -960 -64 0
v -960 0 0
v -896 0 0
v -960 -64 0
v -1024 -64 0
v -1024 0 0
v -960 0 0
v -256 -128 0
v -320 -128 0
v -320 -64 0
v -256 -64 0
v -320 -128 0
v -384 -128 0
v -384 -64 0
v -320 -64 0
v -384 -128 0
v -448 -128 0
v -448 -64 0
v -384 -64 0
v -448 -128 0
v -512 -128 0
v -512 -64 0
v -448 -64 0
v -512 -128 0
v -576 -128 0
v -576 -64 0
v -512 -64 0
v -768 -128 0
v -832 -128 0
v -832 -64 0
v -768 -64 0
v -832 -128 0
v -896 -128 0
v -896 -64 0
v -832 -64 0
v -896 -128 0
v -960 -128 0
v -960 -64 0
v -896 -64 0
v -960 -128 0
v -1024 -128 0
v -1024 -64 0
v -960 -64 0
v -320 -192 0
v -384 -192 0
v -384 -128 0
v -320 -128 0
v -384 -192 0
v -448 -192 0
v -448 -128 0
v -384 -128 0
v -448 -192 0
v -512 -192 0
v -512 -128 0
v -448 -128 0
v -1472 -320 0
v -1536 -320 0
v -1536 -256 0
v -1472 -256 0
v -1536 -320 0
v -1600 -320 0
v -1600 -256 0
v -1536 -256 0
v -1600 -320 0
v -1664 -320 0
v -1664 -256 0
v -1600 -256 0
v -1536 -384 0
v -1600 -384 0
v -1600 -320 0
v -1536 -320 0
v -1600 -384 0
v -1664 -384 0
v -1664 -320 0
v -1600 -320 0
v -1664 -384 0
v -1728 -384 0
v -1728 -320 0
v -1664 -320 0
v -1600 -448 0
v -1664 -448 0
v -1664 -384 0
v -1600 -384 0
v -1664 -448 0
v -1728 -448 0
v -1728 -384 0
v -1664 -384 0
v -1728 -448 0
v -1792 -448 0
v -1792 -384 0
v -1728 -384 0
v -1664 -512 0
v -1728 -512 0
v -1728 -448 0
v -1664 -448 0
v -1728 -512 0
v -1792 -512 0
v -1792 -448 0
v -1728 -448 0
v -1792 -512 0
v -1856 -512 0
v -1856 -448 0
v -1792 -448 0
v -1728 -576 0
v -1792 -576 0
v -1792 -512 0
v -1728 -512 0
v -1792 -576 0
v -1856 -576 0
v -1856 -512 0
v -1792 -512 0
v -1856 -576 0
v -1920 -576 0
v -1920 -512 0
v -1856 -512 0
v -1792 -640 0
v -1856 -640 0
v -1856 -576 0
v -1792 -576 0
v -1856 -640 0
v -1920 -640 0
v -1920 -576 0
v -1856 -576 0
v -1408 -704 0
v -1472 -704 0
v -1472 -640 0
v -1408 -640 0
v -1472 -704 0
v -1536 -704 0
v -1536 -640 0
v -1472 -640 0
v -1536 -704 0
v -1600 -704 0
v -1600 -640 0
v -1536 -640 0
v -1568 -704 0
v -1632 -704 0
v -1632 -640 0
v -1568 -640 0
v -1600 -704 0
v -1664 -704 0
v -1664 -640 0
v -1600 -640 0
v -1664 -704 0
v -1728 -704 0
v -1728 -640 0
v -1664 -640 0
v -1728 -704 0
v -1792 -704 0
v -1792 -640 0
v -1728 -640 0
v -1856 -704 0
v -1920 -704 0
v -1920 -640 0
v -1856 -640 0
v -1792 -768 0
v -1856 -768 0
v -1856 -704 0
v -1792 -704 0
v -1792 -832 0
v -1856 -832 0
v -1856 -768 0
v -1792 -768 0
v -1600 -960 0
v -1664 -960 0
v -1664 -896 0
v -1600 -896 0
v -1664 -960 0
v -1728 -960 0
v -1728 -896 0
v -1664 -896 0
v -1728 -960 0
v -1792 -960 0
v -1792 -896 0
v -1728 -896 0
v -1792 -960 0
v -1856 -960 0
v -1856 -896 0
v -1792 -896 0
v -1856 -960 0
v -1920 -960 0
v -1920 -896 0
v -1856 -896 0
v -1920 -960 0
v -1984 -960 0
v -1984 -896 0
v -1920 -896 0
v -1984 -960 0
v -2048 -960 0
v -2048 -896 0
v -1984 -896 0
v -1536 -1024 0
v -1600 -1024 0
v -1600 -960 0
v -1536 -960 0
v -1600 -1024 0
v -1664 -1024 0
v -1664 -960 0
v -1600 -960 0
v -1472 -1088 0
v -1536 -1088 0
v -1536 -1024 0
v -1472 -1024 0
v -1536 -1088 0
v -1600 -1088 0
v -1600 -1024 0
v -1536 -1024 0
v -1344 -1152 0
v -1408 -1152 0
v -1408 -1088 0
v -1344 -1088 0
v -1408 -1152 0
v -1472 -1152 0
v -1472 -1088 0
v -1408 -1088 0
v -1472 -1152 0
v -1536 -1152 0
v -1536 -1088 0
v -1472 -1088 0
v -1216 -1216 0
v -1280 -1216 0
v -1280 -1152 0
v -1216 -1152 0
v -1280 -1216 0
v -1344 -1216 0
v -1344 -1152 0
v -1280 -1152 0
v -1344 -1216 0
v -1408 -1216 0
v -1408 -1152 0
v -1344 -1152 0
v -1088 -1280 0
v -1152 -1280 0
v -1152 -1216 0
v -1088 -1216 0
v -1152 -1280 0
v -1216 -1280 0
v -1216 -1216 0
v -1152 -1216 0
v -1216 -1280 0
v -1280 -1280 0
v -1280 -1216 0
v -1216 -1216 0
v -896 -1344 0
v -960 -1344 0
v -960 -1280 0
v -896 -1280 0
v -960 -1344 0
v -1024 -1344 0
v -1024 -1280 0
v -960 -1280 0
v -1024 -1344 0
v -1088 -1344 0
v -1088 -1280 0
v -1024 -1280 0
v -1088 -1344 0
v -1152 -1344 0
v -1152 -1280 0
v -1088 -1280 0
v -832 -1408 0
v -896 -1408 0
v -896 -1344 0
v -832 -1344 0
v -896 -1408 0
v -960 -1408 0
v -960 -1344 0
v -896 -1344 0
v -960 -1408 0
v -1024 -1408 0
v -1024 -1344 0
v -960 -1344 0
v -1024 -1408 0
v -1088 -1408 0
v -1088 -1344 0
v -1024 -1344 0
v -768 -1472 0
v -832 -1472 0
v -832 -1408 0
v -768 -1408 0
v -832 -1472 0
v -896 -1472 0
v -896 -1408 0
v -832 -1408 0
v -704 -1536 0
v -768 -1536 0
v -768 -1472 0
v -704 -1472 0
v -768 -1536 0
v -832 -1536 0
v -832 -1472 0
v -768 -1472 0
v -640 -1600 0
v -704 -1600 0
v -704 -1536 0
v -640 -1536 0

# Texture cooridinates (Count = 4)
vt 0 0
vt 1 0
vt 1 1
vt 0 1

# Normal
vn 0 0 -1

# Mesh description
g TestTiledMap2_mesh_0002

# Faces
f 1/1/1 2/2/1 3/3/1 4/4/1
f 5/1/1 6/2/1 7/3/1 8/4/1
f 9/1/1 10/2/1 11/3/1 12/4/1
f 13/1/1 14/2/1 15/3/1 16/4/1
f 17/1/1 18/2/1 19/3/1 20/4/1
f 21/1/1 22/2/1 23/3/1 24/4/1
f 25/1/1 26/2/1 27/3/1 28/4/1
f 29/1/1 30/2/1 31/3/1 32/4/1
f 33/1/1 34/2/1 35/3/1 36/4/1
f 37/1/1 38/2/1 39/3/1 40/4/1
f 41/1/1 42/2/1 43/3/1 44/4/1
f 45/1/1 46/2/1 47/3/1 48/4/1
f 49/1/1 50/2/1 51/3/1 52/4/1
f 53/1/1 54/2/1 55/3/1 56/4/1
f 57/1/1 58/2/1 59/3/1 60/4/1
f 61/1/1 62/2/1 63/3/1 64/4/1
f 65/1/1 66/2/1 67/3/1 68/4/1
f 69/1/1 70/2/1 71/3/1 72/4/1
f 73/1/1 74/2/1 75/3/1 76/4/1
f 77/1/1 78/2/1 79/3/1 80/4/1
f 81/1/1 82/2/1 83/3/1 84/4/1
f 85/1/1 86/2/1 87/3/1 88/4/1
f 89/1/1 90/2/1 91/3/1 92/4/1
f 93/1/1 94/2/1 95/3/1 96/4/1
f 97/1/1 98/2/1 99/3/1 100/4/1
f 101/1/1 102/2/1 103/3/1 104/4/1
f 105/1/1 106/2/1 107/3/1 108/4/1
f 109/1/1 110/2/1 111/3/1 112/4/1
f 113/1/1 114/2/1 115/3/1 116/4/1
f 117/1/1 118/2/1 119/3/1 120/4/1
f 121/1/1 122/2/1 123/3/1 124/4/1
f 125/1/1 126/2/1 127/3/1 128/4/1
f 129/1/1 130/2/1 131/3/1 132/4/1
f 133/1/1 134/2/1 135/3/1 136/4/1
f 137/1/1 138/2/1 139/3/1 140/4/1
f 141/1/1 142/2/1 143/3/1 144/4/1
f 145/1/1 146/2/1 147/3/1 148/4/1
f 149/1/1 150/2/1 151/3/1 152/4/1
f 153/1/1 154/2/1 155/3/1 156/4/1
f 157/1/1 158/2/1 159/3/1 160/4/1
f 161/1/1 162/2/1 163/3/1 164/4/1
f 165/1/1 166/2/1 167/3/1 168/4/1
f 169/1/1 170/2/1 171/3/1 172/4/1
f 173/1/1 174/2/1 175/3/1 176/4/1
f 177/1/1 178/2/1 179/3/1 180/4/1
f 181/1/1 182/2/1 183/3/1 184/4/1
f 185/1/1 186/2/1 187/3/1 188/4/1
f 189/1/1 190/2/1 191/3/1 192/4/1
f 193/1/1 194/2/1 195/3/1 196/4/1
f 197/1/1 198/2/1 199/3/1 200/4/1
f 201/1/1 202/2/1 203/3/1 204/4/1
f 205/1/1 206/2/1 207/3/1 208/4/1
f 209/1/1 210/2/1 211/3/1 212/4/1
f 213/1/1 214/2/1 215/3/1 216/4/1
f 217/1/1 218/2/1 219/3/1 220/4/1
f 221/1/1 222/2/1 223/3/1 224/4/1
f 225/1/1 226/2/1 227/3/1 228/4/1
f 229/1/1 230/2/1 231/3/1 232/4/1
f 233/1/1 234/2/1 235/3/1 236/4/1
f 237/1/1 238/2/1 239/3/1 240/4/1
f 241/1/1 242/2/1 243/3/1 244/4/1
f 245/1/1 246/2/1 247/3/1 248/4/1
f 249/1/1 250/2/1 251/3/1 252/4/1
f 253/1/1 254/2/1 255/3/1 256/4/1
f 257/1/1 258/2/1 259/3/1 260/4/1
f 261/1/1 262/2/1 263/3/1 264/4/1
f 265/1/1 266/2/1 267/3/1 268/4/1
f 269/1/1 270/2/1 271/3/1 272/4/1
f 273/1/1 274/2/1 275/3/1 276/4/1
f 277/1/1 278/2/1 279/3/1 280/4/1
f 281/1/1 282/2/1 283/3/1 284/4/1
f 285/1/1 286/2/1 287/3/1 288/4/1
f 289/1/1 290/2/1 291/3/1 292/4/1
f 293/1/1 294/2/1 295/3/1 296/4/1
f 297/1/1 298/2/1 299/3/1 300/4/1
f 301/1/1 302/2/1 303/3/1 304/4/1
f 305/1/1 306/2/1 307/3/1 308/4/1
f 309/1/1 310/2/1 311/3/1 312/4/1
f 313/1/1 314/2/1 315/3/1 316/4/1
f 317/1/1 318/2/1 319/3/1 320/4/1
f 321/1/1 322/2/1 323/3/1 324/4/1
f 325/1/1 326/2/1 327/3/1 328/4/1
f 329/1/1 330/2/1 331/3/1 332/4/1
f 333/1/1 334/2/1 335/3/1 336/4/1

