# Tiled2Unity generated file. Do not modify by hand.
# Wavefront file for 'TestTiledMap2_mesh_0003.obj'

# Vertices (Count = 16)
v -128 -192 0
v -192 -192 0
v -192 -128 0
v -128 -128 0
v -640 -192 0
v -704 -192 0
v -704 -128 0
v -640 -128 0
v -1472 -576 0
v -1536 -576 0
v -1536 -512 0
v -1472 -512 0
v -1536 -640 0
v -1600 -640 0
v -1600 -576 0
v -1536 -576 0

# Texture cooridinates (Count = 4)
vt 0 0
vt 1 0
vt 1 1
vt 0 1

# Normal
vn 0 0 -1

# Mesh description
g TestTiledMap2_mesh_0003

# Faces
f 1/1/1 2/2/1 3/3/1 4/4/1
f 5/1/1 6/2/1 7/3/1 8/4/1
f 9/1/1 10/2/1 11/3/1 12/4/1
f 13/1/1 14/2/1 15/3/1 16/4/1

