# Tiled2Unity generated file. Do not modify by hand.
# Wavefront file for 'TestTiledMap_mesh_0002.obj'

# Vertices (Count = 12)
v -32 -992 0
v -1160 -992 0
v -1160 295 0
v -32 295 0
v -576 -1216 0
v -1704 -1216 0
v -1704 71 0
v -576 71 0
v -128 -1696 0
v -1256 -1696 0
v -1256 -409 0
v -128 -409 0

# Texture cooridinates (Count = 4)
vt 0 0
vt 1 0
vt 1 1
vt 0 1

# Normal
vn 0 0 -1

# Mesh description
g TestTiledMap_mesh_0002

# Faces
f 1/1/1 2/2/1 3/3/1 4/4/1
f 5/1/1 6/2/1 7/3/1 8/4/1
f 9/1/1 10/2/1 11/3/1 12/4/1

